<svg width="148" height="104" viewBox="0 0 148 104" fill="none" xmlns="http://www.w3.org/2000/svg">
    <path
        d="M135.4 85.2C151.5 66.8 152.4 39 137.3 19.8C127.6 7.4 112.5 0 96.7 0C81.6 0 67.3 6.6 57.5 18.1L52.2 24.3L67.3 33.3C69.5 34.6 72.3 34.1 74 32.2C80.6 24.5 90.7 20.6 100.9 22C115.2 24 126.1 36.4 126.4 50.9C126.6 60.7 121.8 70.1 113.8 75.8C105.4 81.7 92.4 83.7 83.4 77.8C75.1 72.4 71.3 61.1 66.5 52.9C58.9 39.8 50.6 31.1 34.7 31.1C15.5 31.1 0 48 0 66.9C0 86.9 16.2 103.2 36.3 103.2H59.1C59.1 103.2 45.5 84.7 45.4 84.7C42.2 80.3 36.6 82.2 32.1 80.8C27.3 79.3 23.4 75.5 22.2 70.6C20.5 64.1 23.5 57.5 29.1 54.3C32.3 52.5 36.5 52.4 39.8 54.1C43.6 56.1 45.6 60.3 47.7 63.9C48.9 66 50.1 68.2 51.3 70.5C58.7 84.2 68.7 103 96.7 103C111.9 103 125.8 96.1 135.4 85.2Z"
        fill="#EF8200" />
</svg>